<svg id="Layer_1" data-name="Layer 1" xmlns="http://www.w3.org/2000/svg" viewBox="0 0 111.78 145.79"><path d="M133.06-20.4h11.33V12.89H133.2V24.41h-11V57.77H110.77V102.6h-11v11.46H77.38V102.77H65.88V58h-11V24.5H43.46V13.07H32.62V-20.4h10.8l-.07-.07V1.8H54.93V-9.53H65.85V-20.47l-.07.07H77.22V12.83H99.58V-20.4H110.7l-.07-.07V-9.35h11.59V1.82h10.91V-20.47Z" transform="translate(-32.62 31.74)" fill="#68463d"/><path d="M43.42-20.4V-31.74H65.78V-20.4l.07-.07H43.35Z" transform="translate(-32.62 31.74)" fill="#68463d"/><path d="M110.7-20.4V-31.74h22.36V-20.4l.07-.07h-22.5Z" transform="translate(-32.62 31.74)" fill="#68463d"/></svg>