<svg id="Layer_1" data-name="Layer 1" xmlns="http://www.w3.org/2000/svg" viewBox="0 0 114.35 140.78"><path d="M26.5,23.09H79.92L79.85,23v9H88.3v8.93h8.89V76.35H88.44v8.38H80V50H71V41.2H35.55v8.71H26.62V84.72H18.11V67.51H9.22V41.13h8.87V32l-.07.07h8.55V23Z" transform="translate(8.18 20.7)" fill="#68463d"/><path d="M35.69,76.52h35.1v34.7H62v8.85H44.54V102.9H35.69Z" transform="translate(8.18 20.7)" fill="#68463d"/><path d="M18.09,32h-9V23.12H.18V5.71H-8.18V-11.68H9v8.21H18V5.47H26.5V23.09l.07-.07H18v9Z" transform="translate(8.18 20.7)" fill="#68463d"/><path d="M35.68-20.7H52.91v8.77h8.88v26.3H35.68Z" transform="translate(8.18 20.7)" fill="#68463d"/><path d="M79.92,23.09V14.64H71.05V5.72h8.77v-9h8.42v-8.4h17.93V14.51H97.44V23H79.85Z" transform="translate(8.18 20.7)" fill="#68463d"/></svg>