<svg id="Layer_1" data-name="Layer 1" xmlns="http://www.w3.org/2000/svg" viewBox="0 0 62.9 143.74"><path d="M81-1.25h8.84V70.94H81.14V88.85H72.21v27H62.7v8.84H53.77V89.09h-9V62l-.07.07h9.12V53.19H72.14v8.64h8.77V34.55H72.12V25.6l-.07.07h9v-27Z" transform="translate(-26.95 19.07)" fill="#68463d"/><path d="M44.73,62H35.78V34.69H27V-10.23h8.81l-.07-.07V16.47h9V-10.3l-.07.07h9l-.07-.07V16.47h9V-10.3l-.06.07H81v9l.07-.08h-9v27l.07-.07H53.58v9.13H44.66V62.07Z" transform="translate(-26.95 19.07)" fill="#68463d"/><path d="M35.76-10.23v-8.84h8.9v8.84l.07-.07h-9Z" transform="translate(-26.95 19.07)" fill="#68463d"/><path d="M53.69-10.23v-8.84h8.9v8.84l.06-.07h-9Z" transform="translate(-26.95 19.07)" fill="#68463d"/></svg>