<svg id="Layer_1" data-name="Layer 1" xmlns="http://www.w3.org/2000/svg" viewBox="0 0 137.83 163.27"><path d="M75.93-13.85v25H88.86V-.92h24.82V23.83H101.46V36.26H89V49.19H76V74.11H38.63V49.36h-13V36.43H13.18V24H.77V-.92H25.44V11.24h13V-13.85Z" transform="translate(11.67 51.29)" fill="#68463d"/><path d="M51.08,99.7H38.68V86.84H75.76V99.57H63.61V112H51.08Z" transform="translate(11.67 51.29)" fill="#68463d"/><path d="M38.65-26.67V-38.91H50.93V-51.29H63.36V-39H75.82v12.33Z" transform="translate(11.67 51.29)" fill="#68463d"/><path d="M-11.67-38.87H.5v12.24H12.91v12.46H-11.67Z" transform="translate(11.67 51.29)" fill="#68463d"/><path d="M126.16-14.14H101.52V-26.4h12.31V-38.84h12.33Z" transform="translate(11.67 51.29)" fill="#68463d"/></svg>