<svg id="Layer_1" data-name="Layer 1" xmlns="http://www.w3.org/2000/svg" viewBox="0 0 194.77 125.32"><path d="M167.87,33.59v27.9H154V75.41H140.08V89.32h-28v14H56.25V89.52H28.76V75.61H.77v-14H-13.06V33.77H.6V47.51h14V61.34h28V47.64H55.94V19.76H42.77v-14h-14V-8.07H56.09V5.64H70V19.51h55.84V5.74H140l-.06-.07v28h28ZM111.82,75.4V47.71H84.23V75.4Z" transform="translate(13.06 22.04)" fill="#68463d"/><path d="M140,5.74V-22h27.88V5.74l.07-.07h-28Z" transform="translate(13.06 22.04)" fill="#68463d"/><path d="M167.87,5.74h13.84V33.59H167.87l.07.07v-28Z" transform="translate(13.06 22.04)" fill="#68463d"/></svg>