<svg id="Layer_1" data-name="Layer 1" xmlns="http://www.w3.org/2000/svg" viewBox="0 0 163.8 163.79"><path d="M30,80.2H41V69.32H84.3V80.2H95.43l-.07-.07v11h11l-.07-.06v11h10.88v32.86H106.42v11H84.52v-10.8H74V124.24H52.11v10.65h-11v11H19.21V135.09h-11V102.24H19.12V91.11l-.07.06h11v-11Z" transform="translate(13.71 17.92)" fill="#68463d"/><path d="M95.43,80.2V58.3h10.91V36.83h10.91v-22h11V4h11v21.8l.07-.07H128.49v22h10.83l-.07-.06V69.11h-10.9v11h-10.9v11H106.33l.07.06v-11h-11Z" transform="translate(13.71 17.92)" fill="#68463d"/><path d="M19.12,91.11h-11V80.25H-2.76v-22h-11V15H8.15v10.8H-2.69V47.55H8.08V25.76H19V47.7H30V80.2l.07-.07h-11v11Z" transform="translate(13.71 17.92)" fill="#68463d"/><path d="M73.91,14.87H84.26V47.64H74.09V58.05H52V47.81H41.21V3.9H52L52,3.82V25.91H63.06V36.6H74V14.8Z" transform="translate(13.71 17.92)" fill="#68463d"/><path d="M52,3.9V-17.92H62.89V-7.23h11v22.1L74,14.8H62.89v-11H52Z" transform="translate(13.71 17.92)" fill="#68463d"/><path d="M139.25,25.84h10.84V47.72H139.25l.07.06v-22Z" transform="translate(13.71 17.92)" fill="#68463d"/></svg>