<svg id="Layer_1" data-name="Layer 1" xmlns="http://www.w3.org/2000/svg" viewBox="0 0 109.28 121.78"><path d="M109.47,34.71V46.65h11.87V71H109.47V83.63l.08-.06h-12l.06.06V71.1H85.06l.07.07V59.36h-12V71.17l.07-.07H60.64V83.63l.07-.06h-12l.07.06V71.19H36.88V46.83H48.75V34.71l-.07.07h60.87Z" transform="translate(-24.5 13.92)" fill="#68463d"/><path d="M109.47,96v11.83H48.75V96l-.07.07h12V83.57l-.07.06H73.17V71.1l-.07.07h12l-.07-.07V83.63H97.58l-.06-.06V96.1h12Z" transform="translate(-24.5 13.92)" fill="#68463d"/><path d="M60.71,10.36v-12H73.06V-13.92H85V-1.77H97.51V10.36l.07-.07H85V22.15H73.07V10.29H60.64Z" transform="translate(-24.5 13.92)" fill="#68463d"/><path d="M48.75,34.71H36.82V22.39H24.5v-12H36.71V-1.52h11.9V10.36h12.1l-.07-.07V22.37h-12V34.78Z" transform="translate(-24.5 13.92)" fill="#68463d"/><path d="M97.51,10.36h11.93V-1.5h11.9V10.23h12.44v12h-12.2V34.71H109.47l.08.07V22.2h-12V10.29Z" transform="translate(-24.5 13.92)" fill="#68463d"/><path d="M48.75,96H36.93V83.63H48.75l-.07-.06V96.1Z" transform="translate(-24.5 13.92)" fill="#68463d"/><path d="M109.47,83.63H121.3V96H109.47l.08.07V83.57Z" transform="translate(-24.5 13.92)" fill="#68463d"/></svg>