<svg id="Layer_1" data-name="Layer 1" xmlns="http://www.w3.org/2000/svg" viewBox="0 0 83.38 97.35"><path d="M42.09,59.68H28.27V17.89H42.09L42,17.81V59.75Z" transform="translate(-28.27 -4.06)" fill="#68463d"/><path d="M69.93,17.89h27.9v27.9l.07-.06H83.84v-14H70V17.81Z" transform="translate(-28.27 -4.06)" fill="#68463d"/><path d="M97.83,45.79h13.82v41.8H97.83l.07.07V45.73Z" transform="translate(-28.27 -4.06)" fill="#68463d"/><path d="M70,87.59H42.09V59.68l-.07.07H56.08v14H69.93V87.66Z" transform="translate(-28.27 -4.06)" fill="#68463d"/><path d="M42.09,17.89V4.06H69.93V17.89l.06-.08H42Z" transform="translate(-28.27 -4.06)" fill="#68463d"/><path d="M97.83,87.59v13.82H70V87.59l-.06.07h28Z" transform="translate(-28.27 -4.06)" fill="#68463d"/></svg>