<svg id="Layer_1" data-name="Layer 1" xmlns="http://www.w3.org/2000/svg" viewBox="0 0 98.92 115.29"><path d="M56.56,19H90L90,19v8.54h8l-.07-.07v8h16.42V51.79h8.39v25h-8.26v16.4h-7.93v8.52H90.05v7.84H56.7v-7.66H40.2V93.33H32.27V76.84H23.82V52h8.23V35.56h16.6V27.42l-.07.07h8V19ZM97.89,51.78h-8V43.85H81.38V35.59H65V44H56.53v8H48.77V85.36h7.9V93.3h8.52v8.26H81.61v-8.4H90v-8h7.85Z" transform="translate(-23.82 5.78)" fill="#68463d"/><path d="M48.65,27.42H32.22V11.09H23.88V-5.78h16.2V2.45h8.43v8.43h8.05V19l.06-.07h-8v8.54Z" transform="translate(-23.82 5.78)" fill="#68463d"/><path d="M90,19v-8h7.87V2.63h8.43V-5.73h16.39V10.91h-8.17V27.42H97.93l.07.07V19H90Z" transform="translate(-23.82 5.78)" fill="#68463d"/></svg>