<svg id="Layer_1" data-name="Layer 1" xmlns="http://www.w3.org/2000/svg" viewBox="0 0 141.9 128.26"><path d="M94,25.46H133.4V38.35h12.43v38.8h-12.3v13H120.62v26H107l.06.07V103.09H94V90.18h13v-13h13.6v-13h12.71v-13H120.45V38.53H107V51.37H94l.08-26Z" transform="translate(-3.93 -0.17)" fill="#68463d"/><path d="M42.23,116.1H29.79V90.32H16.89v-13h-13V38.44H16.66v-13H55.2l-.07-.08q0,13,.08,26H42.1V38.51H29.7V51.42H17v13H29.8V77.22H42.23v13h13v13.08H42.16v12.91Z" transform="translate(-3.93 -0.17)" fill="#68463d"/><path d="M55.2,25.46V.17H94V25.46l.07-.08H81V13.1H68.08V25.38H55.13Z" transform="translate(-3.93 -0.17)" fill="#68463d"/><path d="M107,116.1v12.33H42.23V116.1l-.07.07h64.91Z" transform="translate(-3.93 -0.17)" fill="#68463d"/><path d="M55.13,90.25v-13h-13V64.38h13V51.3H68v39Z" transform="translate(-3.93 -0.17)" fill="#68463d"/><path d="M107.08,77.29h-13v13H81.27V51.3H94.11V64.21h13Z" transform="translate(-3.93 -0.17)" fill="#68463d"/></svg>