<svg id="Layer_1" data-name="Layer 1" xmlns="http://www.w3.org/2000/svg" viewBox="0 0 136.85 117.83"><path d="M111.81-21.14h9.44v9.89h20.16c0,3.38,0,6.5,0,9.62h-20V18.23h-9.47v10H102v9.26h9.78V28.13h9.47v-10h20V-1.7h9.29V28.06h-9.28V57.5h-9.92V67H121.29l.07.07V57.47h-9.62V47.55H91.93V8.2l-.07.07H102V-1.86h9.93V-21.22Z" transform="translate(-13.76 30.99)" fill="#68463d"/><path d="M23.1-1.71v-9.4H42.93v-10h9.6l-.07-.08V-1.69h10.1v10h9.92l-.07-.07V47.72h-20v9.92H43V67.1l.07-.07H33.12V57.62h-10V18.17l-.07.07,20-.08v10h9.48v9.35h9.76V28.2H52.45v-10H43v-20H23Z" transform="translate(-13.76 30.99)" fill="#68463d"/><path d="M52.53-21.14V-31h59.28v9.85l.07-.08h-20V8.27l.07-.07H72.41l.07.07V-21.22h-20Z" transform="translate(-13.76 30.99)" fill="#68463d"/><path d="M111.81,77v9.84H52.53V77l-.07.07h20.1V67.2H92v9.87h19.92Z" transform="translate(-13.76 30.99)" fill="#68463d"/><path d="M23.1,18.17H13.76V-1.71H23.1L23-1.77v20Z" transform="translate(-13.76 30.99)" fill="#68463d"/><path d="M52.53,77H43.05V67L43,67.1h9.48v10Z" transform="translate(-13.76 30.99)" fill="#68463d"/><path d="M121.29,67V77h-9.48l.07.07v-10h9.48Z" transform="translate(-13.76 30.99)" fill="#68463d"/></svg>