<svg id="Layer_1" data-name="Layer 1" xmlns="http://www.w3.org/2000/svg" viewBox="0 0 131.31 161.75"><path d="M104.18,110.6v10.46h-10v9.84H73.82v-9.66h-10V110.72H43.89v-10H33.37V90.77H23.48V40h9.87V29.81l-.07.07H43.82v-10l-.07.07h10V9.44h60.94l-.07-.07V19.91h10.05l-.07-.07v10h9.88V90.64h-9.77v9.92h-9.92v10.11H104.11V100.6H94.2V90.84H63.93v9.69H94.27V110.6Z" transform="translate(-13.55 30.85)" fill="#68463d"/><path d="M114.64,9.44v-10H104.26v-9.94h10.23V-20.81h30.37V9.3H134.69V19.84H124.55l.07.07V9.37H114.57Z" transform="translate(-13.55 30.85)" fill="#68463d"/><path d="M53.88-.75V-21h9.79v-9.88H84.08v9.79H94V-.75Z" transform="translate(-13.55 30.85)" fill="#68463d"/><path d="M33.35,29.81h-10V20H13.55V-10.38H33.22V-.69H43.75v20.6l.07-.07H33.28v10Z" transform="translate(-13.55 30.85)" fill="#68463d"/></svg>