<svg id="Layer_1" data-name="Layer 1" xmlns="http://www.w3.org/2000/svg" viewBox="0 0 104.91 142.32"><path d="M93.53,20.48h9.34V87.19h-9.2v19h-19v9.33H26.85v-9.15h-19v-19H-2V20.49H7.83l-.07-.07v9.33h18.9v-9.2h9.51V11.1H65v9.28h9.51v9.34H93.6V20.41Z" transform="translate(2.04 26.81)" fill="#68463d"/><path d="M7.83,20.49V11H-2V-26.81H7.7v9.31h9.5V1.38h9.38v9.51H17.39v9.53H7.76Z" transform="translate(2.04 26.81)" fill="#68463d"/><path d="M93.6,20.41H84.15V11.07H74.81V1.56H84V-17.32h9.5v-9.47h9.35V10.86h-9.3v9.62Z" transform="translate(2.04 26.81)" fill="#68463d"/></svg>