<svg id="Layer_1" data-name="Layer 1" xmlns="http://www.w3.org/2000/svg" viewBox="0 0 143.3 117.75"><path d="M109.61,31.33V44.77H122.5V84.12H109.75V97H44.36V84.27H31.53V44.92H44.27V31.41l-.07.07H70.55v-13H57.9V-7.45H70.65V-20.79H83.17V-7.6H96.5v26H83.34v13h26.34Z" transform="translate(-5.59 20.79)" fill="#68463d"/><path d="M18.35,5.47H44.21v26l.06-.07H18.42V5.4Z" transform="translate(-5.59 20.79)" fill="#68463d"/><path d="M109.68,31.4V5.47h25.93l-.06-.07V31.33H109.61Z" transform="translate(-5.59 20.79)" fill="#68463d"/><path d="M135.61,5.47V-7.35h13.28V5.4H135.55Z" transform="translate(-5.59 20.79)" fill="#68463d"/><path d="M18.42,5.4H5.59V-7.36H18.35V5.47Z" transform="translate(-5.59 20.79)" fill="#68463d"/></svg>