<svg id="Layer_1" data-name="Layer 1" xmlns="http://www.w3.org/2000/svg" viewBox="0 0 111.29 161.76"><path d="M28.62,7.52h10l-.07-.07V18h10l-.07-.07v9.82H59.1V17.92L59,18h10V7.45L69,7.52H79.53l-.07-.07V18H90l-.07-.07V58.27H79.6V78.66H69V88.79l.07-.07h-10v30.33H48.68v-9.73H38.76V78.87h-10V48.49H18.23V17.92l-.08.07H28.69V7.45Z" transform="translate(1.57 42.7)" fill="#68463d"/><path d="M38.66,7.52V-22.89h9.86V-42.7H59v19.63H69V7.52l.06-.07H59V18l.07-.07H48.56l.07.07V7.45h-10Z" transform="translate(1.57 42.7)" fill="#68463d"/><path d="M18.23,17.92h-10V7.55H-1.57V-32.76H8.16V-23h9.93v10.43H28.62V7.52l.07-.07H18.15V18Z" transform="translate(1.57 42.7)" fill="#68463d"/><path d="M79.53,7.52V-12.42H89.89V-22.85h10v-9.94h9.83V7.38h-9.67V17.92H89.93L90,18V7.45H79.46Z" transform="translate(1.57 42.7)" fill="#68463d"/><path d="M69,88.79H89.92v20.45l.07-.07H69.06V88.72Z" transform="translate(1.57 42.7)" fill="#68463d"/><path d="M89.92,109.24h9.83V119H90v-9.85Z" transform="translate(1.57 42.7)" fill="#68463d"/></svg>