<svg id="Layer_1" data-name="Layer 1" xmlns="http://www.w3.org/2000/svg" viewBox="0 0 86.97 118.88"><path d="M93.67,24v8h7.88V63.82H93.76v8H85.83v8H70.34v7.82h-24V79.94H30.47V72H22.54V64h-8V32.16h7.88V24l-.07.07h8V16.55l-.07.07h55.4l-.06-.07V24.1h8Z" transform="translate(-14.58 31.2)" fill="#68463d"/><path d="M54.37-31.2h7.85v7.81h7.86V8.44H46.48V-23.18h7.89Z" transform="translate(-14.58 31.2)" fill="#68463d"/><path d="M22.46,24H14.61V-7.26h7.7V-23.13h8v7.73h7.89V8.48H30.36v8.14l.07-.07h-8V24.1Z" transform="translate(-14.58 31.2)" fill="#68463d"/><path d="M85.76,16.62v-8H77.88V-15.22H85.7v-8h7.94V-7.44h7.85V24H93.67l.07.07V16.55h-8Z" transform="translate(-14.58 31.2)" fill="#68463d"/></svg>