<svg id="Layer_1" data-name="Layer 1" xmlns="http://www.w3.org/2000/svg" viewBox="0 0 132.84 142.34"><path d="M90.66,9.6v9.47h9.39V57.42h-9.2V76.33H100v9.53H81.32V114.2H71.79v-9.26H61.85V95.59h-19v9.24H33.41v9.38H24V86.09H14.45v9.24H5v9.35H-4.4V76.52H4.82V57.61h9.44V48.08h9.47V28.68H14.5V19.24H5.08V-18.65H23.76V0h9.52V-28.09H52.19V0h9.53V-28.13H81V.13H71.87V9.67H90.73Z" transform="translate(4.4 28.13)" fill="#68463d"/><path d="M90.73,9.67V-18.62h18.83V0h18.88v28.4H109.77V9.6H90.66Z" transform="translate(4.4 28.13)" fill="#68463d"/></svg>