<svg id="Layer_1" data-name="Layer 1" xmlns="http://www.w3.org/2000/svg" viewBox="0 0 103.36 120.82"><path d="M36.3,33.82H53.21v8.29h8.41V25.48H79.17V42.12h8.41v-8.3h17.58l-.07-.07V51.17H87.78v8.41h-17V76.51H53.4V59.77H44.89V51.35H36.37V33.75Z" transform="translate(-19.05 9.49)" fill="#68463d"/><path d="M61.68-9.49h17.5V-.66h8.33V16.2h-34V-.56h8.2Z" transform="translate(-19.05 9.49)" fill="#68463d"/><path d="M36.37,33.75H19.05V8H44.67V25.19H36.3v8.63Z" transform="translate(-19.05 9.49)" fill="#68463d"/><path d="M105.16,33.82V25.37H96.79V8.06h25.62V33.75H105.09Z" transform="translate(-19.05 9.49)" fill="#68463d"/><path d="M70.67,85.83v16.65H61.86v8.86H53.33v-8.7H45V85.83Z" transform="translate(-19.05 9.49)" fill="#68463d"/></svg>