<svg id="Layer_1" data-name="Layer 1" xmlns="http://www.w3.org/2000/svg" viewBox="0 0 180.76 180.74"><path d="M-3.49,86H-14.93V63.57h-22.5V52.14h-11.4V29.65h11.24V18.21h22.41V-4.28H-3.65V-15.71H18.76V-38.12H30.29V-49.58H52.7v11.3H64.23v22.41H86.64V-4.44H98.16V18.05h22.42V29.49h11.35V52h-11.2V63.41H98.23v22.5H86.8V97.34H64.38v22.49H52.86v11.33H30.45V120H18.92V97.5H-3.49ZM30.4-15.73V-4.22H19V7H64.07V-4.42H52.72V-15.73ZM86.82,63.4V52H98V29.48H86.63V18.26H75.42V63.4Zm-79.61,0V18.25H-3.62V29.7H-14.91V52.1H-3.45V63.44ZM64.15,86V75.14H19.06V86H30.41V97.22H52.9V86Z" transform="translate(48.83 49.58)" fill="#68463d"/></svg>