<svg id="Layer_1" data-name="Layer 1" xmlns="http://www.w3.org/2000/svg" viewBox="0 0 152.82 174.78"><path d="M120.83-22.59V-33.44h21.84v10.73h10.88V10.18H142.79v11H131.85V32.14H120.92v21.5h-11V75.55h-11v43.94H88.44v21.85H66.54V119.58h-11V75.72H44.58V53.81h-11V32.31H22.63V21.38H11.69v-11H.73V-22.53H11.46V-33.39h22v10.8l.07-.07H22.6v10.93H11.77v11h10.7V10.1h11V-.54h10.9V21.23H55.49V32.07H66.24V21.3H55.41V-22.58h11l-.07-.08V-.86h22v-21.8l-.07.08H98.89V21.3H88.54V32.06H98.81V21.23h10.94V-.53h10.91V10.12h11V-.55h10.89v-11H131.88V-22.66H120.76Z" transform="translate(-0.73 33.44)"/><path d="M66.46-22.58V-33.42H88.34v10.84l.07-.08h-22Z" transform="translate(-0.73 33.44)"/><path d="M33.47-22.59H44.31v10.78H33.54V-22.66Z" transform="translate(-0.73 33.44)"/><path d="M120.76-22.66v10.83H110V-22.59h10.85Z" transform="translate(-0.73 33.44)"/></svg>