<svg id="Layer_1" data-name="Layer 1" xmlns="http://www.w3.org/2000/svg" viewBox="0 0 116.41 186.75"><path d="M88.86-32.34v12H100.3V26.35h11.92V3.23h11.51V-20.21H147V14.52H135.84v23.4h-12V49.44H112.41v23.4H100.49v11.9h-23V61.56h-12v-12H54.07V38.11H42.15V14.63H30.7V-8.68H54V14.51H65.39V26.39H77.31V-32.27H88.93Z" transform="translate(-30.7 67.1)"/><path d="M88.93-32.27V-43.73H77.57V-55.15H88.85V-67.1h11.33v34.76H88.86Z" transform="translate(-30.7 67.1)"/><path d="M53.86-20.45H30.74V-43.64H41.91v11.26h12Z" transform="translate(-30.7 67.1)"/><path d="M77.6,96.43h22.57v23.22H89V108.47H77.6Z" transform="translate(-30.7 67.1)"/><path d="M124-43.81h11.71v-11.3h11.44V-32.5H124Z" transform="translate(-30.7 67.1)"/></svg>