<svg id="Layer_1" data-name="Layer 1" xmlns="http://www.w3.org/2000/svg" viewBox="0 0 138.27 137.79"><path d="M100.33,67.67V80.61h12.88v24.87H100.43v12.44H88V105.63H75.5V93.31H63.09v12.14h-13v12.46H37.67V105.65H25.21V80.78H37.59V67.67l-.07.07H50V55.36H87.79V67.74H100.4Z" transform="translate(0.16 19.87)"/><path d="M75.5,42.68H63.08V30.45H50.18v-38H62.92V-19.87H75.33V-7.73h12.4v38H75.5Z" transform="translate(0.16 19.87)"/><path d="M37.59,67.67H12.67V55.32H-.16V17.51H25V30.19H37.52V67.74Z" transform="translate(0.16 19.87)"/><path d="M100.4,67.74V30.37h12.85V17.54h24.86v37.6H125.92V67.67H100.33Z" transform="translate(0.16 19.87)"/></svg>