<svg id="Layer_1" data-name="Layer 1" xmlns="http://www.w3.org/2000/svg" viewBox="0 0 161.84 129.7"><path d="M152.18,11v32.3H141.84V54.41h-11.1q0-10.75,0-21.5h10.85V22.16H130.79V33h-22V21.91H98.38V.17h-11V11.09H77V21.84H98.45c0,3.67,0,7.33,0,11.07h10.42V43.48h11V54.34h10.91V86.73h-11V97.66H108.92v10.85h-32v-43H66V76.2H55.57V97.57h-11V86.87H33.64V54.42H44.28V43.49H33.59V33h-11V11.08H12.17V-10.24H33.44V0H55.35V10.85H65.79V.09h11V-10.35H87.25V-21.2h11v10.69h10.44V0h11V11h32.5ZM44.43,22V11.17H33.67V21.94H44.51V32.81H65.75V22Z" transform="translate(-1.18 21.2)"/><path d="M22.35,76.25H12.14V65.38h-11V54.55H22.35Z" transform="translate(-1.18 21.2)"/><path d="M152.25,11V.22H163V11H152.18Z" transform="translate(-1.18 21.2)"/></svg>