<svg id="Layer_1" data-name="Layer 1" xmlns="http://www.w3.org/2000/svg" viewBox="0 0 100.97 164.74"><path d="M58.48,110.26V97.81H46V72.42H33.11V60H20.6V46.48H8.26V34.08H32.94V46.21H45.86V8.7H71.33V46.24H83.75V34.09h25.42v12.2H96.38V59.8H84V72.23H71.53v38H58.41Z" transform="translate(-8.2 29.24)"/><path d="M71.2-4h-25V-16.91H58.38V-29.24H71.2Z" transform="translate(-8.2 29.24)"/><path d="M84,20.78V8.55H96.25V-3.83H109.1V20.78Z" transform="translate(-8.2 29.24)"/><path d="M8.2,20.79V-3.86H20.46V8.38H32.81V20.79Z" transform="translate(-8.2 29.24)"/><path d="M58.41,110.19q0,6.53,0,13l.07-.07H46.15v-12.9H58.48Z" transform="translate(-8.2 29.24)"/><path d="M58.4,123.23H71.22v12.28H58.47V123.16Z" transform="translate(-8.2 29.24)"/></svg>