<svg id="Layer_1" data-name="Layer 1" xmlns="http://www.w3.org/2000/svg" viewBox="0 0 86.38 139.22"><path d="M94.74,110.51v-8.94H85.82V93.16h-8V75.61h-9V66.7H60.36V40.65l-.07.07H77.7V58h7.91V23.27h9.12l-.07-.07v8.44h8.5V58H112V40.72h8.61l-.07-.07v8.54h9l-.07-.07V66.55h-8.83V83.94h-8.51v9H103.3v17.49H94.67Z" transform="translate(-51.51 3)"/><path d="M60.36,40.65H51.51V14.4h8.68v8.76h8.46v8.43H60.29v9.13Z" transform="translate(-51.51 3)"/><path d="M94.73,23.27v-9H85.87V-3h8.78V5.69H103V23.2H94.66Z" transform="translate(-51.51 3)"/><path d="M94.67,110.44v8.46H103v17.32H94.76V128H85.92V110.51h8.82Z" transform="translate(-51.51 3)"/><path d="M120.65,40.72V31.77h8.84V23.43h8.4V49.12h-8.34l.07.07V40.65h-9Z" transform="translate(-51.51 3)"/></svg>