<svg id="Layer_1" data-name="Layer 1" xmlns="http://www.w3.org/2000/svg" viewBox="0 0 82.88 138.88"><path d="M92.83,45V82.39H83.47v18.42H74.54v8.94H65v9.46H37.16V109.9h-9V101H18.77V54.62h9.29V36.12H37V26.68h9.34v-9H37.19V8.21h9.24V-10.2H56v-9.47h8.83V17.58H56.13v9H74.47l-.07-.07v9.54h9L83.37,36v9h9.54ZM74.25,82.49V63.93H64.94V54.7H46.48V64H37.25V82.49h9.32v8.74H65V82.49Z" transform="translate(-18.77 19.67)"/><path d="M74.47,26.62V8.19h8.85V-10.13h9.5V8.05h8.83V45H92.83l.08.07V36H83.37l.07.07V26.55h-9Z" transform="translate(-18.77 19.67)"/></svg>