<svg id="Layer_1" data-name="Layer 1" xmlns="http://www.w3.org/2000/svg" viewBox="0 0 146.89 137.72"><path d="M45.76,35.11h9V25.76h9.43v-9h9V7.42H91.72V25.71h-9v9.47H73.27v9H64.42v9.26h8.77V44.08h9.48v-9h9V25.63h9.45V16.84H110v8.79h9.72c0,6.39,0,12.5,0,18.6h-9.47v9.48h-9.08v8.92H91.81v9.26h9.31V62.55h9.07V53.64h9.48V44.17h17.77V62.48h-8.81V72h-9v9h-9.48v9.47h-8.85v8.76h8.78V90.45h9.48V81h17.82V99.41h-8.73v9.43h-8.94v9H101.23v9.44H82.8v8.85H27.38v-8.7H9V118H-.48v-9h-9V62.67H-.72V44.25H8.81V25.76h8.94V16.82H27.2V7.29h9V-1.55H54.61V16.66H45.83V35.18H36.48v8.76h9.28Zm8.92,55.37V81H36.26V72.21H8.77v8.9H-.42v9.43H8.91v9H36.4V118h9.44v9.25H64.35v-9.4H73V99.42H64.21V90.48Z" transform="translate(9.45 1.55)"/></svg>