<svg id="Layer_1" data-name="Layer 1" xmlns="http://www.w3.org/2000/svg" viewBox="0 0 94.38 119.84"><path d="M59.45,12H93.33v8.85h8.93v8.52h8.52v16.9h8.88v42.9h-8.74v8.93h-8.43v8.41H68.05V98.31H59.53v-9H50.6V80.86H42.17v-17H33.7V38h8.38V20.89L42,21H59.52v-9ZM76.52,80.76v17.3H85v-9h8.52V80.68h17.16V72.17h-8.35V55H93.35V63.9H84.83v8.43H68.17v8.43Z" transform="translate(-25.28 13.34)"/><path d="M42.08,20.89H33.62v8.38H25.28V3.54h8.19V-4.88H42v-8.46H67.84v8.28H76.3V3.36H59.45V12l.07-.07H42v9Z" transform="translate(-25.28 13.34)"/></svg>