<svg id="Layer_1" data-name="Layer 1" xmlns="http://www.w3.org/2000/svg" viewBox="0 0 140.39 130.82"><path d="M-10.73,95.46V76.53h9.3V67.1h-9.24V57.66h-9.41v-9H-11V39.12h-9.16V29.69H-1.45V20.26h-9.28V1.16l-.07.07H7.59V10.7h9.6l-.06-.07V29.74H7.83V67.09h9.4v9.43h9.52v9.29H73.59V76.34h9.52V66.91h9.24V29.56H83V10.63L83,10.7H92.4V1.23H111l-.07-.07V20.09h-8.81v9.43h18.17V39h-9.14v9.43h9.1v9H111v9.43h-8.9v9.43h8.79V95.46l.06-.07H92.44v9l.07-.07H73.58V95.57H64.15v8.8H54.64v9.33h-9v-9.24H36.19V95.58H26.76v8.78H7.65l.07.07v-9H-10.8Z" transform="translate(20.13 17.1)"/><path d="M26.68-7.76V-17.1H45.52V-8h8.94v-9.08h19v9.3l.07-.06H63.94V10.74h-9.4V29.43H45.45V10.56h-9.4V-7.82H26.6Z" transform="translate(20.13 17.1)"/><path d="M17.19,10.7V-7.76h9.49l-.08-.06V10.63H17.13Z" transform="translate(20.13 17.1)"/><path d="M73.49-7.76H83V10.7l.07-.07H73.56V-7.82Z" transform="translate(20.13 17.1)"/><path d="M92.44,104.43h9.34v9.28H92.51v-9.35Z" transform="translate(20.13 17.1)"/><path d="M-10.73,1.16h-9.34V-7.62h9.27V1.23Z" transform="translate(20.13 17.1)"/><path d="M111,1.23V-7.61h9.28V1.16H110.9Z" transform="translate(20.13 17.1)"/><path d="M-10.8,95.39v8.83h-9.29V95.46h9.36Z" transform="translate(20.13 17.1)"/><path d="M110.9,95.46h9.33v8.78H111q0-4.44,0-8.85Z" transform="translate(20.13 17.1)"/><path d="M7.65,104.36v9.34H-1.13v-9.27H7.72Z" transform="translate(20.13 17.1)"/></svg>