<svg id="Layer_1" data-name="Layer 1" xmlns="http://www.w3.org/2000/svg" viewBox="0 0 111.39 97.36"><path d="M15,16.19V2.37H70.8V16.08H84.7v14H98.64V44H84.77v14.1l.07-.07h-14V72l.07-.07h-14l.07.07V58h-14l.07.07v-28H28.86V16.12H15Z" transform="translate(12.75 -2.37)"/><path d="M70.81,85.9V99.73H15.09V86.06h-14v-14H-12.75V30.15H1.06L1,30.08v28H15.13V71.83H29V58.06H43L42.88,58V72h14L56.85,72V86h14Z" transform="translate(12.75 -2.37)"/><path d="M1.06,30.15v-14H15L15,16.12v14H1Z" transform="translate(12.75 -2.37)"/><path d="M84.77,58.06H98.6V71.94H84.78l.06.08V58Z" transform="translate(12.75 -2.37)"/><path d="M84.78,71.94v14h-14l.07.07V72l-.07.07h14Z" transform="translate(12.75 -2.37)"/></svg>