<svg id="Layer_1" data-name="Layer 1" xmlns="http://www.w3.org/2000/svg" viewBox="0 0 46.03 122.78"><path d="M99.79,5.05v7.47h7.38V27.43H99.86V50.91H92V66.32h7.6v15.5H91.93v7.34H76.54V82H69.13V66.5h7.1V51H69V35.58H61.14V12.69H69V5.05l-.07.07h7.53v-8l-.06.06H91.9l-.07-.06v8h8Z" transform="translate(-61.14 33.62)"/><path d="M69,5.05H61.16V-10.29h7.69V-25.78h7.51v-7.84H91.75V-26h8v15.49h7.34V5.05H99.79l.07.07v-8h-8l.07.06v-7.33H76.4v7.33l.06-.06H68.93v8Z" transform="translate(-61.14 33.62)"/></svg>