<svg id="Layer_1" data-name="Layer 1" xmlns="http://www.w3.org/2000/svg" viewBox="0 0 117.31 136.75"><path d="M33,2H43V-7.9H71.84V2h9.62l-.06-.07v20h10l-.08-.07V60.71H81.52v19.9H72v9.52H52.61v9.93H43.18v10h-20v9.34H3.71V110.2H-6.13v-20H3.6V60.85h9.92V31.48h9.62V21.85l-.07.07h10v-20Z" transform="translate(6.13 17.34)"/><path d="M81.46,2V-8h9.86v-9.33h19.86V11.82h-9.69v10H91.36l.08.07v-20h-10Z" transform="translate(6.13 17.34)"/><path d="M23.14,21.85H13.68V12H3.85V-17.34H23v9.19H33V2l.07-.07h-10v20Z" transform="translate(6.13 17.34)"/></svg>