<svg id="Layer_1" data-name="Layer 1" xmlns="http://www.w3.org/2000/svg" viewBox="0 0 121.86 121.89"><path d="M99.64,80.65v7.46H91.78V96h-15v7.46H46.42V96.21H30.93V88.29H23.39V80.65l-.07.07H38.44V88H84.27v-7.3H99.71Z" transform="translate(-0.58 18.41)"/><path d="M23.39,4.43V-3h7.36v-7.42h15.5v-8H76.61v7.78h15V-3.2h8V4.43l.07-.06H84.09V-2.94H38.26V4.37H23.32Z" transform="translate(-0.58 18.41)"/><path d="M15.9,73.17h-8V65.79H.58V20H7.75V12.41H15.9l-.07-.07v60.9Z" transform="translate(-0.58 18.41)"/><path d="M107.13,12.41h7.47v7.38h7.85V65.62h-7.67v7.55h-7.65l.06.07V12.34Z" transform="translate(-0.58 18.41)"/><path d="M15.9,12.41v-8h7.49l-.07-.06v8H15.83Z" transform="translate(-0.58 18.41)"/><path d="M99.64,4.43h7.49v8l.06-.07H99.71v-8Z" transform="translate(-0.58 18.41)"/><path d="M23.39,80.65H15.9V73.17l-.07.07h7.49v7.48Z" transform="translate(-0.58 18.41)"/><path d="M107.13,73.17v7.48H99.64l.07.07V73.24h7.48Z" transform="translate(-0.58 18.41)"/><path d="M76.74,73.14v7.39H46.36V73.3H30.86V57.8H23.52V27.44H30.7v-15H46.2V4.59H76.67v7.7H91.59v15h8V57.64H91.74v15.5ZM69.29,20H53.72v7.34H46.49V42.85h7.33v7.23H69.31V42.75h7.23V27.27H69.29Z" transform="translate(-0.58 18.41)"/></svg>