<svg id="Layer_1" data-name="Layer 1" xmlns="http://www.w3.org/2000/svg" viewBox="0 0 106.86 149.81"><path d="M94.05,32.57V54.08l.07-.07h-11V75.52l.07-.06H72.61v11l.07-.08h-11l.07.08V75.67H40.2V86.5l.07-.08H29.73l.07.08v-11h-11l.07.06V54H8.29l.08.07V32.57l-.08.07H18.83V.65l-.06.07H83.15L83.08.65v32h11Z" transform="translate(2.47 42.07)"/><path d="M29.74-31.19H40.18V-42.07H61.56v10.88H72.68l-.07-.07v20.8H29.81v-20.8Z" transform="translate(2.47 42.07)"/><path d="M29.73,86.42v21.32H18.89V97.05H8.38V86.54H-2.45V54.08H8.37L8.29,54V75.52H18.83l-.07-.06v11h11Z" transform="translate(2.47 42.07)"/><path d="M94.05,54.08h10.34V86.36H94.21V96.88h-11v10.83H72.68V86.42l-.07.08H83.15v-11l-.07.06h11V54Z" transform="translate(2.47 42.07)"/><path d="M61.64,86.42v21.31H40.27V86.42l-.07.08H61.71Z" transform="translate(2.47 42.07)"/><path d="M8.37,32.57H-2.47V.72H8.36L8.29.65v32Z" transform="translate(2.47 42.07)"/><path d="M94.05.72h10.34V32.57H94.05l.07.07V.65Z" transform="translate(2.47 42.07)"/><path d="M83.15.72v-21.3h10.9V.72l.07-.07h-11Z" transform="translate(2.47 42.07)"/><path d="M8.36.72v-21.3H18.77V.72l.06-.07H8.29Z" transform="translate(2.47 42.07)"/><path d="M29.81-31.26H19V-42H29.74v10.85Z" transform="translate(2.47 42.07)"/><path d="M72.68-31.19V-42H83v10.76H72.61Z" transform="translate(2.47 42.07)"/></svg>