<svg id="Layer_1" data-name="Layer 1" xmlns="http://www.w3.org/2000/svg" viewBox="0 0 129.28 129.91"><path d="M77,117.83H40.17V109h-19V99.54h-9v-9H2.71V71.61H-6.14V34.17H2.59V15.76H12V6.33h9v-9H40v-9.39H76.82v9.27H95.33V6.11h9.52v9.53h8.94V34h9.35V71.48h-9.23V90.39H105v8.94H95.45v9.52H77ZM76.93,6.4H40v9.34H21v18.5H12.31V71.59h8.84v19h19v8.66H77V90.41h18.5v-19h9.17V34.06H95.35V15.57H76.93Z" transform="translate(6.14 12.09)"/><path d="M40.08,62.51H30.74V43.64h9.34L40,43.57v19Z" transform="translate(6.14 12.09)"/><path d="M67.44,71.49v9.33H49.06V71.49l-.07.07H67.51Z" transform="translate(6.14 12.09)"/><path d="M76.92,43.64h8.84V62.51H76.92l.06.07v-19Z" transform="translate(6.14 12.09)"/><path d="M49.06,34.16V25.33H67.44v8.83l.07-.06H49Z" transform="translate(6.14 12.09)"/><path d="M67.44,34.16h9.48v9.48l.06-.07H67.51V34.1Z" transform="translate(6.14 12.09)"/><path d="M40.08,43.64V34.16h9L49,34.1v9.47H40Z" transform="translate(6.14 12.09)"/><path d="M76.92,62.51v9H67.44l.07.07v-9H77Z" transform="translate(6.14 12.09)"/><path d="M49.06,71.49h-9v-9l-.07.07h9v9Z" transform="translate(6.14 12.09)"/></svg>