<svg id="Layer_1" data-name="Layer 1" xmlns="http://www.w3.org/2000/svg" viewBox="0 0 95.87 140.32"><path d="M65.54,67.76h9V33h8.34V94.1H74.62v17.41h-9v8.95H57.17V103.28H48.24v8.28h-9v8.84H30.78v-8.66h-9v-8.47H13.33v17.16h-9v-8.74H-4.63V94.28H-13V33h8.18v34.8H4.28l-.07-.07v9h9.05l-.07-.06V85.5H57.13V76.67l-.07.06h8.55v-9Z" transform="translate(13.03 19.86)"/><path d="M48.09,23.88h9l-.07-.07v9h8.48v35l.07-.07H57.06v9l.07-.06H13.19l.07.06v-9h-9l.07.07V32.93h9V23.81l-.06.07h8.53l-.07-.07v8.83h26.5V23.81Z" transform="translate(13.03 19.86)"/><path d="M21.73,23.88V-2H30.6V-19.86H39V-2.22h9.05v26.1l.07-.07H21.66Z" transform="translate(13.03 19.86)"/><path d="M13.26,23.81H-13V6.49h8.18V-10.9h9V6.27h9V23.88Z" transform="translate(13.03 19.86)"/><path d="M57.13,23.88V6.45h8.35V-10.87h9V6.31h8.33v17.5H57.06Z" transform="translate(13.03 19.86)"/></svg>