<svg id="Layer_1" data-name="Layer 1" xmlns="http://www.w3.org/2000/svg" viewBox="0 0 130.82 139.8"><path d="M121,104.29h-8.18v8.82H95.35v-8.62H86.42v8.58h-35v-8.63H34v8.68H7.56v-8.75H-.82V78.47H7.35v-9H-.89V61H-9.74V25.54H-1V17.1h8.4V8.16H-.8V-9.35H7.43v-8.39H24.85v8.16h9V-17.8h8.44v-8.86H59.82V-18h8.94v8.4H77.7v-8.26h8.53v-8.85h17.5v8.74h8.83V-.52H104V8h8.73V25.42h8.38V60.8H112.9V78.3H121ZM34,78.33v8.34h43.8V78.33h8.48v-9h8.84V25.54H86.27V17.06H77.79V8.22H34v8.84H25v8.48H16.66V69.35H25v9Z" transform="translate(9.74 26.68)"/><path d="M77.86,17v8.48h8.48v44H77.86v9H33.91v-9h-9V25.47h9V17Z" transform="translate(9.74 26.68)"/></svg>