<svg id="Layer_1" data-name="Layer 1" xmlns="http://www.w3.org/2000/svg" viewBox="0 0 138.89 138.83"><path d="M41.66,56.52H24.23v8.87H-2.15V56.61h-8.46V22.27h8.29v-9H24.05v8.88H41.66l-.07-.07v8.54h8.55l-.07-.07V48.11l.07-.07H41.59v8.55Z" transform="translate(10.61 30.06)"/><path d="M76,56.52V73.94h8.88v26.37H76.1v8.46H41.75v-8.29h-9V74.12h8.88V56.52l-.07.07h8.55V48l-.07.07H67.6L67.53,48v8.55h8.55Z" transform="translate(10.61 30.06)"/><path d="M41.66,22.19V4.76H32.78V-21.11h8.79v-8.95H75.92v8.78h9V4.58H76V22.19l.07-.07H67.53v8.54l.07-.07H50.07l.07.07V22.12H41.59Z" transform="translate(10.61 30.06)"/><path d="M76,22.19H93.44V13.31h25.88v8.78h9V56.43H119.5v9H93.62V56.52H76l.07.07V48H67.53l.07.07V30.59l-.07.07h8.55V22.12Z" transform="translate(10.61 30.06)"/></svg>