<svg id="Layer_1" data-name="Layer 1" xmlns="http://www.w3.org/2000/svg" viewBox="0 0 163.78 163.79"><path d="M75.4-31.11h27.4v13.92h14v27.4h13.39V64.54H117V92H103V106H75.62v13.4H21.19V106.17H-6.29v-14H-20.23V64.75H-33.57V10.34h13.21V-17H-6.43V-31H21.06V-44.43H75.4ZM-6.21,10.39H7.21V23.56h14V10.23H34.38v-14H21V-16.93h-14V-3.6H-6.21Zm109,0V-3.72H89.42V-16.94h-14V-3.63H62.2v14H75.52V23.58h14V10.36Zm-81.68,41h-14V64.72H-6.17v14H7.2V91.94h14V78.57H34.43v-14H21.06ZM89.34,64.61V51.38H75.44V64.69H62.2v14H75.51V91.91h14V78.6h13.24v-14ZM34.76,23.88V51H61.88V23.88Z" transform="translate(33.57 44.43)"/></svg>