<svg id="Layer_1" data-name="Layer 1" xmlns="http://www.w3.org/2000/svg" viewBox="0 0 130.76 130.8"><path d="M39.84,24.05V15.11H31.49V6.69h-9V-2.43l-.07.07H39.84V6.5h17.9V15h8.52V24h8.93V41.36H83.6V58.85H75.38V76.34h-9v8.94H49v8.35H31.46V85.44H14.06v-9H5V68H-3.39V50.58h-9V32.47l-.07.07h9v8.84H4.86v9H14v8.34h8.26V50.48H13.91V32.55H5V24.11H-3.39V15.18h-9V-2.43l-.07.07H4.94V6.5h8.93v8.43H22.3V24H39.91v8.35h8.76V24.05Z" transform="translate(20.76 10.71)"/><path d="M101.23,111.24H83.93V94h17.23v17.32Z" transform="translate(20.76 10.71)"/><path d="M101.16,111.31H110v8.78h-8.77v-8.85Z" transform="translate(20.76 10.71)"/><path d="M-12.43-2.43h-8.33v-8.28h8.26v8.35Z" transform="translate(20.76 10.71)"/><path d="M22.47-2.43H14.14v-8.28H22.4v8.35Z" transform="translate(20.76 10.71)"/><path d="M-12.43,32.47h-8.33V24.19h8.26v8.35Z" transform="translate(20.76 10.71)"/></svg>