<svg id="Layer_1" data-name="Layer 1" xmlns="http://www.w3.org/2000/svg" viewBox="0 0 119.68 130.32"><path d="M153,213.61V203.22H142v-11l-.06.07H153v-22l-.06.07,10.63-.08-.07-.06v43.37H153Z" transform="translate(-87.66 -94.06)"/><path d="M196.61,137.89l-.08-33-.06.07h10.87v32.91h-10.8Z" transform="translate(-87.66 -94.06)"/><path d="M142,148.72H131v-32.9l-.06.07h11v32.9Z" transform="translate(-87.66 -94.06)"/><path d="M131,115.82H109v-11l-.06.07h22v11Z" transform="translate(-87.66 -94.06)"/><path d="M120,181.13H109V159.2l-.06.06h11V181.2Z" transform="translate(-87.66 -94.06)"/><path d="M120,181.2H141.9v11.05l.06-.07H120V181.13Z" transform="translate(-87.66 -94.06)"/><path d="M142,148.79H152.9v21.52l.06-.07H142V148.72Z" transform="translate(-87.66 -94.06)"/><path d="M109,159.2H87.66V148.91H109v10.35Z" transform="translate(-87.66 -94.06)"/><path d="M196.53,104.85H185.66V94.06h10.81v10.86Z" transform="translate(-87.66 -94.06)"/><path d="M174.6,126.71H163.69V116h10.85v10.75Z" transform="translate(-87.66 -94.06)"/><path d="M185.53,137.75H174.6v-11l-.06.07h10.93v11Z" transform="translate(-87.66 -94.06)"/><path d="M185.47,137.82l11.14.07-.07-.06v10.89H185.47l.07.07q0-5.52,0-11Z" transform="translate(-87.66 -94.06)"/><path d="M163.53,170.23v-11h10.93l-.07-.06v11H163.47Z" transform="translate(-87.66 -94.06)"/><path d="M153,213.54v10.85H142.15V213.61H153Z" transform="translate(-87.66 -94.06)"/><path d="M109,104.85H98.66V94.06H109v10.86Z" transform="translate(-87.66 -94.06)"/><path d="M185.47,148.72v10.41H174.39l.07.06v-10.4h11.07Z" transform="translate(-87.66 -94.06)"/></svg>